<mxfile host="app.diagrams.net" agent="Mozilla/5.0 (Windows NT 10.0; Win64; x64) AppleWebKit/537.36 (KHTML, like Gecko) Chrome/131.0.0.0 Safari/537.36" version="25.0.3">
  <diagram name="Página-1" id="skSzZZ9ZzXYdIlgl9VNU">
    <mxGraphModel dx="1419" dy="707" grid="1" gridSize="10" guides="1" tooltips="1" connect="1" arrows="1" fold="1" page="1" pageScale="1" pageWidth="827" pageHeight="1169" math="0" shadow="0">
      <root>
        <mxCell id="0" />
        <mxCell id="1" parent="0" />
        <mxCell id="_eFsksmytpkjQQwhOC29-29" style="edgeStyle=none;shape=connector;curved=1;rounded=0;orthogonalLoop=1;jettySize=auto;html=1;exitX=1;exitY=0.5;exitDx=0;exitDy=0;entryX=0;entryY=0;entryDx=0;entryDy=0;strokeColor=default;align=center;verticalAlign=middle;fontFamily=Helvetica;fontSize=12;fontColor=default;labelBackgroundColor=default;startSize=8;endArrow=none;endFill=0;endSize=8;" parent="1" source="_eFsksmytpkjQQwhOC29-1" target="_eFsksmytpkjQQwhOC29-28" edge="1">
          <mxGeometry relative="1" as="geometry" />
        </mxCell>
        <mxCell id="_eFsksmytpkjQQwhOC29-1" value="AEROPUERTOS" style="whiteSpace=wrap;html=1;align=center;" parent="1" vertex="1">
          <mxGeometry x="-643" y="170" width="100" height="40" as="geometry" />
        </mxCell>
        <mxCell id="_eFsksmytpkjQQwhOC29-9" style="edgeStyle=none;shape=connector;curved=1;rounded=0;orthogonalLoop=1;jettySize=auto;html=1;exitX=0.5;exitY=1;exitDx=0;exitDy=0;entryX=0.25;entryY=0;entryDx=0;entryDy=0;strokeColor=default;align=center;verticalAlign=middle;fontFamily=Helvetica;fontSize=12;fontColor=default;labelBackgroundColor=default;startSize=8;endArrow=none;endFill=0;endSize=8;" parent="1" source="_eFsksmytpkjQQwhOC29-2" target="_eFsksmytpkjQQwhOC29-1" edge="1">
          <mxGeometry relative="1" as="geometry" />
        </mxCell>
        <mxCell id="_eFsksmytpkjQQwhOC29-2" value="cod_aeropuerto" style="ellipse;whiteSpace=wrap;html=1;align=center;fontStyle=4;" parent="1" vertex="1">
          <mxGeometry x="-673" y="60" width="100" height="40" as="geometry" />
        </mxCell>
        <mxCell id="_eFsksmytpkjQQwhOC29-7" style="edgeStyle=none;curved=1;rounded=0;orthogonalLoop=1;jettySize=auto;html=1;entryX=0.75;entryY=0;entryDx=0;entryDy=0;fontSize=12;startSize=8;endSize=8;endArrow=none;endFill=0;exitX=0.5;exitY=1;exitDx=0;exitDy=0;" parent="1" source="_eFsksmytpkjQQwhOC29-3" target="_eFsksmytpkjQQwhOC29-1" edge="1">
          <mxGeometry relative="1" as="geometry" />
        </mxCell>
        <mxCell id="_eFsksmytpkjQQwhOC29-3" value="nombre" style="ellipse;whiteSpace=wrap;html=1;align=center;" parent="1" vertex="1">
          <mxGeometry x="-603" y="100" width="100" height="40" as="geometry" />
        </mxCell>
        <mxCell id="_eFsksmytpkjQQwhOC29-6" style="edgeStyle=none;curved=1;rounded=0;orthogonalLoop=1;jettySize=auto;html=1;fontSize=12;startSize=8;endSize=8;endArrow=none;endFill=0;entryX=0.5;entryY=0;entryDx=0;entryDy=0;" parent="1" source="_eFsksmytpkjQQwhOC29-4" target="_eFsksmytpkjQQwhOC29-70" edge="1">
          <mxGeometry relative="1" as="geometry">
            <mxPoint x="-748" y="170" as="targetPoint" />
          </mxGeometry>
        </mxCell>
        <mxCell id="_eFsksmytpkjQQwhOC29-4" value="país" style="ellipse;whiteSpace=wrap;html=1;align=center;" parent="1" vertex="1">
          <mxGeometry x="-790" y="80" width="100" height="40" as="geometry" />
        </mxCell>
        <mxCell id="_eFsksmytpkjQQwhOC29-10" style="edgeStyle=none;shape=connector;curved=1;rounded=0;orthogonalLoop=1;jettySize=auto;html=1;exitX=0.5;exitY=0;exitDx=0;exitDy=0;entryX=0.5;entryY=1;entryDx=0;entryDy=0;strokeColor=default;align=center;verticalAlign=middle;fontFamily=Helvetica;fontSize=12;fontColor=default;labelBackgroundColor=default;startSize=8;endArrow=none;endFill=0;endSize=8;" parent="1" source="_eFsksmytpkjQQwhOC29-5" target="_eFsksmytpkjQQwhOC29-70" edge="1">
          <mxGeometry relative="1" as="geometry" />
        </mxCell>
        <mxCell id="_eFsksmytpkjQQwhOC29-5" value="ciudad" style="ellipse;whiteSpace=wrap;html=1;align=center;" parent="1" vertex="1">
          <mxGeometry x="-773" y="265" width="100" height="40" as="geometry" />
        </mxCell>
        <mxCell id="_eFsksmytpkjQQwhOC29-52" style="edgeStyle=none;shape=connector;curved=1;rounded=0;orthogonalLoop=1;jettySize=auto;html=1;entryX=0.5;entryY=0;entryDx=0;entryDy=0;strokeColor=default;align=center;verticalAlign=middle;fontFamily=Helvetica;fontSize=12;fontColor=default;labelBackgroundColor=default;startSize=8;endArrow=none;endFill=0;endSize=8;exitX=0.5;exitY=1;exitDx=0;exitDy=0;" parent="1" source="_eFsksmytpkjQQwhOC29-13" target="_eFsksmytpkjQQwhOC29-61" edge="1">
          <mxGeometry relative="1" as="geometry">
            <mxPoint x="-553" y="400" as="sourcePoint" />
          </mxGeometry>
        </mxCell>
        <mxCell id="_eFsksmytpkjQQwhOC29-13" value="&lt;span style=&quot;border-bottom: 1px dotted&quot;&gt;nombre&lt;/span&gt;" style="ellipse;whiteSpace=wrap;html=1;align=center;fontFamily=Helvetica;fontSize=12;fontColor=default;labelBackgroundColor=default;" parent="1" vertex="1">
          <mxGeometry x="-643" y="350" width="100" height="40" as="geometry" />
        </mxCell>
        <mxCell id="_eFsksmytpkjQQwhOC29-16" style="edgeStyle=none;shape=connector;curved=1;rounded=0;orthogonalLoop=1;jettySize=auto;html=1;exitX=0.5;exitY=0;exitDx=0;exitDy=0;entryX=0.5;entryY=1;entryDx=0;entryDy=0;strokeColor=default;align=center;verticalAlign=middle;fontFamily=Helvetica;fontSize=12;fontColor=default;labelBackgroundColor=default;startSize=8;endArrow=none;endFill=0;endSize=8;" parent="1" source="_eFsksmytpkjQQwhOC29-15" target="_eFsksmytpkjQQwhOC29-61" edge="1">
          <mxGeometry relative="1" as="geometry">
            <mxPoint x="-643" y="460" as="targetPoint" />
          </mxGeometry>
        </mxCell>
        <mxCell id="_eFsksmytpkjQQwhOC29-15" value="capacidad" style="ellipse;whiteSpace=wrap;html=1;align=center;fontFamily=Helvetica;fontSize=12;fontColor=default;labelBackgroundColor=default;" parent="1" vertex="1">
          <mxGeometry x="-643" y="500" width="100" height="40" as="geometry" />
        </mxCell>
        <mxCell id="_eFsksmytpkjQQwhOC29-20" value="VUELOS" style="whiteSpace=wrap;html=1;align=center;fontFamily=Helvetica;fontSize=12;fontColor=default;labelBackgroundColor=default;" parent="1" vertex="1">
          <mxGeometry x="-294" y="420" width="100" height="40" as="geometry" />
        </mxCell>
        <mxCell id="_eFsksmytpkjQQwhOC29-22" style="edgeStyle=none;shape=connector;curved=1;rounded=0;orthogonalLoop=1;jettySize=auto;html=1;exitX=0;exitY=0.5;exitDx=0;exitDy=0;strokeColor=default;align=center;verticalAlign=middle;fontFamily=Helvetica;fontSize=12;fontColor=default;labelBackgroundColor=default;startSize=8;endArrow=none;endFill=0;endSize=8;entryX=1;entryY=0.5;entryDx=0;entryDy=0;" parent="1" source="_eFsksmytpkjQQwhOC29-21" target="_eFsksmytpkjQQwhOC29-20" edge="1">
          <mxGeometry relative="1" as="geometry">
            <mxPoint x="-193" y="190" as="targetPoint" />
          </mxGeometry>
        </mxCell>
        <mxCell id="_eFsksmytpkjQQwhOC29-21" value="nº_vuelo" style="ellipse;whiteSpace=wrap;html=1;align=center;fontStyle=4;fontFamily=Helvetica;fontSize=12;fontColor=default;labelBackgroundColor=default;" parent="1" vertex="1">
          <mxGeometry x="-143" y="420" width="100" height="40" as="geometry" />
        </mxCell>
        <mxCell id="_eFsksmytpkjQQwhOC29-24" style="edgeStyle=none;shape=connector;curved=1;rounded=0;orthogonalLoop=1;jettySize=auto;html=1;exitX=0;exitY=1;exitDx=0;exitDy=0;strokeColor=default;align=center;verticalAlign=middle;fontFamily=Helvetica;fontSize=12;fontColor=default;labelBackgroundColor=default;startSize=8;endArrow=none;endFill=0;endSize=8;entryX=1;entryY=0;entryDx=0;entryDy=0;" parent="1" source="_eFsksmytpkjQQwhOC29-23" target="_eFsksmytpkjQQwhOC29-45" edge="1">
          <mxGeometry relative="1" as="geometry">
            <mxPoint x="-194" y="170" as="targetPoint" />
          </mxGeometry>
        </mxCell>
        <mxCell id="_eFsksmytpkjQQwhOC29-23" value="línea_aerea" style="ellipse;whiteSpace=wrap;html=1;align=center;fontFamily=Helvetica;fontSize=12;fontColor=default;labelBackgroundColor=default;" parent="1" vertex="1">
          <mxGeometry x="-160" y="120" width="100" height="40" as="geometry" />
        </mxCell>
        <mxCell id="_eFsksmytpkjQQwhOC29-26" style="edgeStyle=none;shape=connector;curved=1;rounded=0;orthogonalLoop=1;jettySize=auto;html=1;exitX=0;exitY=0;exitDx=0;exitDy=0;strokeColor=default;align=center;verticalAlign=middle;fontFamily=Helvetica;fontSize=12;fontColor=default;labelBackgroundColor=default;startSize=8;endArrow=none;endFill=0;endSize=8;entryX=1;entryY=1;entryDx=0;entryDy=0;" parent="1" source="_eFsksmytpkjQQwhOC29-76" target="_eFsksmytpkjQQwhOC29-45" edge="1">
          <mxGeometry relative="1" as="geometry">
            <mxPoint x="-169.14552060383153" y="230.77443213654442" as="sourcePoint" />
            <mxPoint x="-194" y="210" as="targetPoint" />
          </mxGeometry>
        </mxCell>
        <mxCell id="_eFsksmytpkjQQwhOC29-32" style="edgeStyle=none;shape=connector;curved=1;rounded=0;orthogonalLoop=1;jettySize=auto;html=1;exitX=0;exitY=1;exitDx=0;exitDy=0;entryX=1;entryY=0.5;entryDx=0;entryDy=0;strokeColor=default;align=center;verticalAlign=middle;fontFamily=Helvetica;fontSize=12;fontColor=default;labelBackgroundColor=default;startSize=8;endArrow=none;endFill=0;endSize=8;" parent="1" source="_eFsksmytpkjQQwhOC29-27" target="_eFsksmytpkjQQwhOC29-1" edge="1">
          <mxGeometry relative="1" as="geometry" />
        </mxCell>
        <mxCell id="_eFsksmytpkjQQwhOC29-27" value="aterrizar" style="shape=rhombus;perimeter=rhombusPerimeter;whiteSpace=wrap;html=1;align=center;fontFamily=Helvetica;fontSize=12;fontColor=default;labelBackgroundColor=default;" parent="1" vertex="1">
          <mxGeometry x="-483" y="110" width="120" height="60" as="geometry" />
        </mxCell>
        <mxCell id="_eFsksmytpkjQQwhOC29-30" style="edgeStyle=none;shape=connector;curved=1;rounded=0;orthogonalLoop=1;jettySize=auto;html=1;exitX=1;exitY=0;exitDx=0;exitDy=0;strokeColor=default;align=center;verticalAlign=middle;fontFamily=Helvetica;fontSize=12;fontColor=default;labelBackgroundColor=default;startSize=8;endArrow=none;endFill=0;endSize=8;entryX=0;entryY=0.5;entryDx=0;entryDy=0;" parent="1" source="_eFsksmytpkjQQwhOC29-28" target="_eFsksmytpkjQQwhOC29-45" edge="1">
          <mxGeometry relative="1" as="geometry">
            <mxPoint x="-294" y="190" as="targetPoint" />
          </mxGeometry>
        </mxCell>
        <mxCell id="_eFsksmytpkjQQwhOC29-28" value="despegar" style="shape=rhombus;perimeter=rhombusPerimeter;whiteSpace=wrap;html=1;align=center;fontFamily=Helvetica;fontSize=12;fontColor=default;labelBackgroundColor=default;" parent="1" vertex="1">
          <mxGeometry x="-483" y="220" width="120" height="60" as="geometry" />
        </mxCell>
        <mxCell id="_eFsksmytpkjQQwhOC29-31" style="edgeStyle=none;shape=connector;curved=1;rounded=0;orthogonalLoop=1;jettySize=auto;html=1;entryX=0.789;entryY=0.769;entryDx=0;entryDy=0;entryPerimeter=0;strokeColor=default;align=center;verticalAlign=middle;fontFamily=Helvetica;fontSize=12;fontColor=default;labelBackgroundColor=default;startSize=8;endArrow=none;endFill=0;endSize=8;exitX=0;exitY=0.5;exitDx=0;exitDy=0;" parent="1" source="_eFsksmytpkjQQwhOC29-45" target="_eFsksmytpkjQQwhOC29-27" edge="1">
          <mxGeometry relative="1" as="geometry">
            <mxPoint x="-294" y="190" as="sourcePoint" />
          </mxGeometry>
        </mxCell>
        <mxCell id="_eFsksmytpkjQQwhOC29-33" value="(1,N)" style="text;html=1;align=center;verticalAlign=middle;resizable=0;points=[];autosize=1;strokeColor=none;fillColor=none;fontSize=12;fontFamily=Helvetica;fontColor=default;labelBackgroundColor=default;" parent="1" vertex="1">
          <mxGeometry x="-344" y="155" width="50" height="30" as="geometry" />
        </mxCell>
        <mxCell id="_eFsksmytpkjQQwhOC29-34" value="(1,1)" style="text;html=1;align=center;verticalAlign=middle;resizable=0;points=[];autosize=1;strokeColor=none;fillColor=none;fontSize=12;fontFamily=Helvetica;fontColor=default;labelBackgroundColor=default;" parent="1" vertex="1">
          <mxGeometry x="-553" y="160" width="50" height="30" as="geometry" />
        </mxCell>
        <mxCell id="_eFsksmytpkjQQwhOC29-35" value="(1,1)" style="text;html=1;align=center;verticalAlign=middle;resizable=0;points=[];autosize=1;strokeColor=none;fillColor=none;fontSize=12;fontFamily=Helvetica;fontColor=default;labelBackgroundColor=default;" parent="1" vertex="1">
          <mxGeometry x="-553" y="190" width="50" height="30" as="geometry" />
        </mxCell>
        <mxCell id="_eFsksmytpkjQQwhOC29-37" value="(1,N)" style="text;html=1;align=center;verticalAlign=middle;resizable=0;points=[];autosize=1;strokeColor=none;fillColor=none;fontSize=12;fontFamily=Helvetica;fontColor=default;labelBackgroundColor=default;" parent="1" vertex="1">
          <mxGeometry x="-344" y="195" width="50" height="30" as="geometry" />
        </mxCell>
        <mxCell id="_eFsksmytpkjQQwhOC29-38" value="1:N" style="text;html=1;align=center;verticalAlign=middle;resizable=0;points=[];autosize=1;strokeColor=none;fillColor=none;fontSize=12;fontFamily=Helvetica;fontColor=default;labelBackgroundColor=default;" parent="1" vertex="1">
          <mxGeometry x="-443" y="80" width="40" height="30" as="geometry" />
        </mxCell>
        <mxCell id="_eFsksmytpkjQQwhOC29-39" value="1:N" style="text;html=1;align=center;verticalAlign=middle;resizable=0;points=[];autosize=1;strokeColor=none;fillColor=none;fontSize=12;fontFamily=Helvetica;fontColor=default;labelBackgroundColor=default;" parent="1" vertex="1">
          <mxGeometry x="-443" y="195" width="40" height="30" as="geometry" />
        </mxCell>
        <mxCell id="_eFsksmytpkjQQwhOC29-41" style="edgeStyle=none;shape=connector;curved=1;rounded=0;orthogonalLoop=1;jettySize=auto;html=1;entryX=0.5;entryY=0;entryDx=0;entryDy=0;strokeColor=default;align=center;verticalAlign=middle;fontFamily=Helvetica;fontSize=12;fontColor=default;labelBackgroundColor=default;startSize=8;endArrow=none;endFill=0;endSize=8;exitX=0.5;exitY=1;exitDx=0;exitDy=0;" parent="1" source="_eFsksmytpkjQQwhOC29-45" target="_eFsksmytpkjQQwhOC29-20" edge="1">
          <mxGeometry relative="1" as="geometry">
            <mxPoint x="-250" y="200" as="sourcePoint" />
          </mxGeometry>
        </mxCell>
        <mxCell id="_eFsksmytpkjQQwhOC29-44" style="edgeStyle=none;shape=connector;curved=1;rounded=0;orthogonalLoop=1;jettySize=auto;html=1;exitX=0.5;exitY=0;exitDx=0;exitDy=0;entryX=0.5;entryY=1;entryDx=0;entryDy=0;strokeColor=default;align=center;verticalAlign=middle;fontFamily=Helvetica;fontSize=12;fontColor=default;labelBackgroundColor=default;startSize=8;endArrow=none;endFill=0;endSize=8;" parent="1" source="_eFsksmytpkjQQwhOC29-45" target="_eFsksmytpkjQQwhOC29-43" edge="1">
          <mxGeometry relative="1" as="geometry">
            <mxPoint x="-219" y="170" as="sourcePoint" />
          </mxGeometry>
        </mxCell>
        <mxCell id="_eFsksmytpkjQQwhOC29-42" value="pertenecer" style="shape=rhombus;perimeter=rhombusPerimeter;whiteSpace=wrap;html=1;align=center;fontFamily=Helvetica;fontSize=12;fontColor=default;labelBackgroundColor=default;" parent="1" vertex="1">
          <mxGeometry x="-304" y="280" width="120" height="60" as="geometry" />
        </mxCell>
        <mxCell id="_eFsksmytpkjQQwhOC29-43" value="cod_programa" style="ellipse;whiteSpace=wrap;html=1;align=center;fontStyle=4;fontFamily=Helvetica;fontSize=12;fontColor=default;labelBackgroundColor=default;" parent="1" vertex="1">
          <mxGeometry x="-294" y="75" width="100" height="40" as="geometry" />
        </mxCell>
        <mxCell id="_eFsksmytpkjQQwhOC29-45" value="PROGRAMA" style="whiteSpace=wrap;html=1;align=center;fontFamily=Helvetica;fontSize=12;fontColor=default;labelBackgroundColor=default;" parent="1" vertex="1">
          <mxGeometry x="-294" y="170" width="100" height="40" as="geometry" />
        </mxCell>
        <mxCell id="_eFsksmytpkjQQwhOC29-51" style="edgeStyle=none;shape=connector;curved=1;rounded=0;orthogonalLoop=1;jettySize=auto;html=1;exitX=0.5;exitY=0;exitDx=0;exitDy=0;entryX=1;entryY=1;entryDx=0;entryDy=0;strokeColor=default;align=center;verticalAlign=middle;fontFamily=Helvetica;fontSize=12;fontColor=default;labelBackgroundColor=default;startSize=8;endArrow=none;endFill=0;endSize=8;" parent="1" source="_eFsksmytpkjQQwhOC29-46" target="_eFsksmytpkjQQwhOC29-20" edge="1">
          <mxGeometry relative="1" as="geometry" />
        </mxCell>
        <mxCell id="_eFsksmytpkjQQwhOC29-46" value="fecha" style="ellipse;whiteSpace=wrap;html=1;align=center;fontFamily=Helvetica;fontSize=12;fontColor=default;labelBackgroundColor=default;" parent="1" vertex="1">
          <mxGeometry x="-203" y="485" width="100" height="40" as="geometry" />
        </mxCell>
        <mxCell id="_eFsksmytpkjQQwhOC29-50" style="edgeStyle=none;shape=connector;curved=1;rounded=0;orthogonalLoop=1;jettySize=auto;html=1;exitX=0.5;exitY=0;exitDx=0;exitDy=0;entryX=0.5;entryY=1;entryDx=0;entryDy=0;strokeColor=default;align=center;verticalAlign=middle;fontFamily=Helvetica;fontSize=12;fontColor=default;labelBackgroundColor=default;startSize=8;endArrow=none;endFill=0;endSize=8;" parent="1" source="_eFsksmytpkjQQwhOC29-47" target="_eFsksmytpkjQQwhOC29-20" edge="1">
          <mxGeometry relative="1" as="geometry" />
        </mxCell>
        <mxCell id="_eFsksmytpkjQQwhOC29-47" value="plazas_vacías" style="ellipse;whiteSpace=wrap;html=1;align=center;fontFamily=Helvetica;fontSize=12;fontColor=default;labelBackgroundColor=default;" parent="1" vertex="1">
          <mxGeometry x="-294" y="525" width="100" height="40" as="geometry" />
        </mxCell>
        <mxCell id="_eFsksmytpkjQQwhOC29-54" style="edgeStyle=none;shape=connector;curved=1;rounded=0;orthogonalLoop=1;jettySize=auto;html=1;exitX=1;exitY=0;exitDx=0;exitDy=0;entryX=0.25;entryY=1;entryDx=0;entryDy=0;strokeColor=default;align=center;verticalAlign=middle;fontFamily=Helvetica;fontSize=12;fontColor=default;labelBackgroundColor=default;startSize=8;endArrow=none;endFill=0;endSize=8;" parent="1" source="_eFsksmytpkjQQwhOC29-62" target="_eFsksmytpkjQQwhOC29-45" edge="1">
          <mxGeometry relative="1" as="geometry">
            <mxPoint x="-396.6600000000001" y="393.15" as="sourcePoint" />
          </mxGeometry>
        </mxCell>
        <mxCell id="_eFsksmytpkjQQwhOC29-58" value="(1,N)" style="text;html=1;align=center;verticalAlign=middle;resizable=0;points=[];autosize=1;strokeColor=none;fillColor=none;fontSize=12;fontFamily=Helvetica;fontColor=default;labelBackgroundColor=default;" parent="1" vertex="1">
          <mxGeometry x="-253" y="210" width="50" height="30" as="geometry" />
        </mxCell>
        <mxCell id="_eFsksmytpkjQQwhOC29-59" value="(1,1)" style="text;html=1;align=center;verticalAlign=middle;resizable=0;points=[];autosize=1;strokeColor=none;fillColor=none;fontSize=12;fontFamily=Helvetica;fontColor=default;labelBackgroundColor=default;" parent="1" vertex="1">
          <mxGeometry x="-253" y="390" width="50" height="30" as="geometry" />
        </mxCell>
        <mxCell id="_eFsksmytpkjQQwhOC29-60" value="N:1" style="text;html=1;align=center;verticalAlign=middle;resizable=0;points=[];autosize=1;strokeColor=none;fillColor=none;fontSize=12;fontFamily=Helvetica;fontColor=default;labelBackgroundColor=default;" parent="1" vertex="1">
          <mxGeometry x="-183" y="295" width="40" height="30" as="geometry" />
        </mxCell>
        <mxCell id="_eFsksmytpkjQQwhOC29-64" style="edgeStyle=none;shape=connector;curved=1;rounded=0;orthogonalLoop=1;jettySize=auto;html=1;exitX=1;exitY=0.5;exitDx=0;exitDy=0;entryX=0;entryY=0.5;entryDx=0;entryDy=0;strokeColor=default;align=center;verticalAlign=middle;fontFamily=Helvetica;fontSize=12;fontColor=default;labelBackgroundColor=default;startSize=8;endArrow=none;endFill=0;endSize=8;" parent="1" source="_eFsksmytpkjQQwhOC29-77" target="_eFsksmytpkjQQwhOC29-20" edge="1">
          <mxGeometry relative="1" as="geometry" />
        </mxCell>
        <mxCell id="_eFsksmytpkjQQwhOC29-74" style="edgeStyle=none;shape=connector;curved=1;rounded=0;orthogonalLoop=1;jettySize=auto;html=1;exitX=0;exitY=0.5;exitDx=0;exitDy=0;entryX=1;entryY=0.5;entryDx=0;entryDy=0;strokeColor=default;align=center;verticalAlign=middle;fontFamily=Helvetica;fontSize=12;fontColor=default;labelBackgroundColor=default;startSize=8;endArrow=none;endFill=0;endSize=8;" parent="1" source="_eFsksmytpkjQQwhOC29-61" target="_eFsksmytpkjQQwhOC29-73" edge="1">
          <mxGeometry relative="1" as="geometry" />
        </mxCell>
        <mxCell id="_eFsksmytpkjQQwhOC29-61" value="MODELO_AVIÓNES" style="whiteSpace=wrap;html=1;align=center;fontFamily=Helvetica;fontSize=12;fontColor=default;labelBackgroundColor=default;" parent="1" vertex="1">
          <mxGeometry x="-653" y="420" width="120" height="40" as="geometry" />
        </mxCell>
        <mxCell id="_eFsksmytpkjQQwhOC29-63" style="edgeStyle=none;shape=connector;curved=1;rounded=0;orthogonalLoop=1;jettySize=auto;html=1;exitX=0;exitY=0;exitDx=0;exitDy=0;entryX=0.75;entryY=1;entryDx=0;entryDy=0;strokeColor=default;align=center;verticalAlign=middle;fontFamily=Helvetica;fontSize=12;fontColor=default;labelBackgroundColor=default;startSize=8;endArrow=none;endFill=0;endSize=8;" parent="1" source="_eFsksmytpkjQQwhOC29-62" target="_eFsksmytpkjQQwhOC29-1" edge="1">
          <mxGeometry relative="1" as="geometry" />
        </mxCell>
        <mxCell id="_eFsksmytpkjQQwhOC29-62" value="hacer_escala" style="shape=rhombus;perimeter=rhombusPerimeter;whiteSpace=wrap;html=1;align=center;fontFamily=Helvetica;fontSize=12;fontColor=default;labelBackgroundColor=default;" parent="1" vertex="1">
          <mxGeometry x="-483" y="320" width="120" height="60" as="geometry" />
        </mxCell>
        <mxCell id="_eFsksmytpkjQQwhOC29-65" value="(1,N)" style="text;html=1;align=center;verticalAlign=middle;resizable=0;points=[];autosize=1;strokeColor=none;fillColor=none;fontSize=12;fontFamily=Helvetica;fontColor=default;labelBackgroundColor=default;" parent="1" vertex="1">
          <mxGeometry x="-583" y="211" width="50" height="30" as="geometry" />
        </mxCell>
        <mxCell id="_eFsksmytpkjQQwhOC29-66" value="(1,1)" style="text;html=1;align=center;verticalAlign=middle;resizable=0;points=[];autosize=1;strokeColor=none;fillColor=none;fontSize=12;fontFamily=Helvetica;fontColor=default;labelBackgroundColor=default;" parent="1" vertex="1">
          <mxGeometry x="-304" y="210" width="50" height="30" as="geometry" />
        </mxCell>
        <mxCell id="_eFsksmytpkjQQwhOC29-69" value="N:1" style="text;html=1;align=center;verticalAlign=middle;resizable=0;points=[];autosize=1;strokeColor=none;fillColor=none;fontSize=12;fontFamily=Helvetica;fontColor=default;labelBackgroundColor=default;" parent="1" vertex="1">
          <mxGeometry x="-443" y="295" width="40" height="30" as="geometry" />
        </mxCell>
        <mxCell id="_eFsksmytpkjQQwhOC29-71" style="edgeStyle=none;shape=connector;curved=1;rounded=0;orthogonalLoop=1;jettySize=auto;html=1;exitX=1;exitY=0.5;exitDx=0;exitDy=0;entryX=0;entryY=0.5;entryDx=0;entryDy=0;strokeColor=default;align=center;verticalAlign=middle;fontFamily=Helvetica;fontSize=12;fontColor=default;labelBackgroundColor=default;startSize=8;endArrow=none;endFill=0;endSize=8;" parent="1" source="_eFsksmytpkjQQwhOC29-70" target="_eFsksmytpkjQQwhOC29-1" edge="1">
          <mxGeometry relative="1" as="geometry" />
        </mxCell>
        <mxCell id="_eFsksmytpkjQQwhOC29-70" value="dirección" style="ellipse;whiteSpace=wrap;html=1;align=center;" parent="1" vertex="1">
          <mxGeometry x="-763" y="171" width="100" height="40" as="geometry" />
        </mxCell>
        <mxCell id="_eFsksmytpkjQQwhOC29-73" value="id_modelo" style="ellipse;whiteSpace=wrap;html=1;align=center;fontStyle=4;fontFamily=Helvetica;fontSize=12;fontColor=default;labelBackgroundColor=default;" parent="1" vertex="1">
          <mxGeometry x="-780" y="420" width="100" height="40" as="geometry" />
        </mxCell>
        <mxCell id="_eFsksmytpkjQQwhOC29-76" value="días_semana" style="ellipse;shape=doubleEllipse;margin=3;whiteSpace=wrap;html=1;align=center;fontFamily=Helvetica;fontSize=12;fontColor=default;labelBackgroundColor=default;" parent="1" vertex="1">
          <mxGeometry x="-160" y="220" width="100" height="40" as="geometry" />
        </mxCell>
        <mxCell id="_eFsksmytpkjQQwhOC29-78" value="" style="edgeStyle=none;shape=connector;curved=1;rounded=0;orthogonalLoop=1;jettySize=auto;html=1;exitX=1;exitY=0.5;exitDx=0;exitDy=0;entryX=0;entryY=0.5;entryDx=0;entryDy=0;strokeColor=default;align=center;verticalAlign=middle;fontFamily=Helvetica;fontSize=12;fontColor=default;labelBackgroundColor=default;startSize=8;endArrow=none;endFill=0;endSize=8;" parent="1" source="_eFsksmytpkjQQwhOC29-61" target="_eFsksmytpkjQQwhOC29-77" edge="1">
          <mxGeometry relative="1" as="geometry">
            <mxPoint x="-533" y="440" as="sourcePoint" />
            <mxPoint x="-294" y="440" as="targetPoint" />
          </mxGeometry>
        </mxCell>
        <mxCell id="_eFsksmytpkjQQwhOC29-77" value="contener" style="shape=rhombus;perimeter=rhombusPerimeter;whiteSpace=wrap;html=1;align=center;fontFamily=Helvetica;fontSize=12;fontColor=default;labelBackgroundColor=default;" parent="1" vertex="1">
          <mxGeometry x="-483" y="410" width="120" height="60" as="geometry" />
        </mxCell>
        <mxCell id="_eFsksmytpkjQQwhOC29-79" value="(1,1)" style="text;html=1;align=center;verticalAlign=middle;resizable=0;points=[];autosize=1;strokeColor=none;fillColor=none;fontSize=12;fontFamily=Helvetica;fontColor=default;labelBackgroundColor=default;" parent="1" vertex="1">
          <mxGeometry x="-543" y="420" width="50" height="30" as="geometry" />
        </mxCell>
        <mxCell id="_eFsksmytpkjQQwhOC29-81" value="(1,N)" style="text;html=1;align=center;verticalAlign=middle;resizable=0;points=[];autosize=1;strokeColor=none;fillColor=none;fontSize=12;fontFamily=Helvetica;fontColor=default;labelBackgroundColor=default;" parent="1" vertex="1">
          <mxGeometry x="-344" y="420" width="50" height="30" as="geometry" />
        </mxCell>
        <mxCell id="_eFsksmytpkjQQwhOC29-82" value="1:N" style="text;html=1;align=center;verticalAlign=middle;resizable=0;points=[];autosize=1;strokeColor=none;fillColor=none;fontSize=12;fontFamily=Helvetica;fontColor=default;labelBackgroundColor=default;" parent="1" vertex="1">
          <mxGeometry x="-443" y="470" width="40" height="30" as="geometry" />
        </mxCell>
        <mxCell id="_eFsksmytpkjQQwhOC29-84" style="edgeStyle=none;shape=connector;curved=1;rounded=0;orthogonalLoop=1;jettySize=auto;html=1;exitX=0;exitY=0.5;exitDx=0;exitDy=0;entryX=1;entryY=1;entryDx=0;entryDy=0;strokeColor=default;align=center;verticalAlign=middle;fontFamily=Helvetica;fontSize=12;fontColor=default;labelBackgroundColor=default;startSize=8;endArrow=none;endFill=0;endSize=8;" parent="1" source="_eFsksmytpkjQQwhOC29-83" target="_eFsksmytpkjQQwhOC29-62" edge="1">
          <mxGeometry relative="1" as="geometry" />
        </mxCell>
        <mxCell id="_eFsksmytpkjQQwhOC29-83" value="nº_orden" style="ellipse;whiteSpace=wrap;html=1;align=center;fontFamily=Helvetica;fontSize=12;fontColor=default;labelBackgroundColor=default;" parent="1" vertex="1">
          <mxGeometry x="-363" y="350" width="100" height="40" as="geometry" />
        </mxCell>
      </root>
    </mxGraphModel>
  </diagram>
</mxfile>
